<svg height="32" width="32" xmlns="http://www.w3.org/2000/svg"><path d="M6 6.998c-1.1 0-2 .9-2 2v14c0 1.1.9 2 2 2h1.424a.5.5 0 00.152 0h16.848a.5.5 0 00.152 0H26c1.1 0 2-.9 2-2v-14c0-1.1-.9-2-2-2H6zm0 1h1.322l8.36 6.885a.5.5 0 00.636 0l8.36-6.885H26c.563 0 1 .437 1 1v14c0 .563-.437 1-1 1h-1v-13a.5.5 0 00-.818-.387L16 17.35l-8.182-6.74a.5.5 0 00-.324-.113.5.5 0 00-.494.5v13H6c-.563 0-1-.437-1-1v-14c0-.563.437-1 1-1zm2.895 0h14.21L16 13.85 8.895 7.998zM8 12.057l7.682 6.326a.5.5 0 00.636 0L24 12.057v11.941H8V12.057z" style="line-height:normal;text-indent:0;text-align:start;text-decoration-line:none;text-decoration-style:solid;text-decoration-color:#000;text-transform:none;block-progression:tb;white-space:normal;isolation:auto;mix-blend-mode:normal;solid-color:#000;solid-opacity:1" color="#000" font-weight="400" font-family="sans-serif" overflow="visible"/></svg>